<svg width="66" height="15" viewBox="0 0 66 15" fill="none" xmlns="http://www.w3.org/2000/svg">
<path d="M57.8752 8.4045H63.8752C63.8911 8.01734 63.8255 7.63117 63.6827 7.27095C63.54 6.91072 63.3232 6.58445 63.0465 6.31324C62.7698 6.04202 62.4392 5.83188 62.0762 5.6964C61.7132 5.56093 61.3258 5.50313 60.939 5.52675C60.5487 5.51315 60.1596 5.57696 59.7941 5.71451C59.4286 5.85205 59.094 6.06061 58.8095 6.32815C58.525 6.59569 58.2963 6.91691 58.1366 7.27328C57.9769 7.62965 57.8894 8.01412 57.879 8.4045H57.8752ZM55.7842 9.4335C55.7842 6.1455 57.7718 3.8835 60.996 3.8835C64.2 3.88425 66 5.979 66 9.225C66 9.5115 66 9.82125 65.9797 9.98475H57.8752C57.9157 11.7532 58.9508 13.356 61.0395 13.356C61.6476 13.4038 62.2537 13.2423 62.7574 12.8983C63.261 12.5542 63.6319 12.0483 63.8085 11.4645H65.856C65.3167 13.4805 63.7673 15 60.996 15C57.6473 15 55.7872 12.6382 55.7842 9.4335ZM43.5262 14.6932V1.95H38.7495V0H50.5995V1.95H45.825V14.6932H43.5262ZM26.6512 8.4045H32.6512C32.6671 8.01734 32.6015 7.63117 32.4587 7.27095C32.316 6.91072 32.0993 6.58445 31.8225 6.31324C31.5458 6.04202 31.2152 5.83188 30.8522 5.6964C30.4892 5.56093 30.1018 5.50313 29.715 5.52675C29.3247 5.51315 28.9356 5.57696 28.5701 5.71451C28.2046 5.85205 27.87 6.06061 27.5855 6.32815C27.301 6.59569 27.0723 6.91691 26.9126 7.27328C26.7529 7.62965 26.6654 8.01412 26.655 8.4045H26.6512ZM24.5625 9.4335C24.5625 6.1455 26.55 3.8835 29.7743 3.8835C32.979 3.8835 34.7782 5.979 34.7782 9.2265C34.7782 9.513 34.7783 9.82275 34.758 9.98625H26.6535C26.697 11.7547 27.729 13.3575 29.8177 13.3575C30.4268 13.4065 31.0342 13.2455 31.539 12.9014C32.0439 12.5573 32.4157 12.0508 32.5928 11.466H34.6403C34.0973 13.4805 32.5455 15 29.775 15C26.4233 15 24.5633 12.6382 24.5603 9.4335H24.5625ZM18.2775 5.6295C16.5413 5.6295 15.4275 6.6795 15.4275 8.26125V14.6932H13.4025V0H15.4275V5.52675H15.468C15.8672 4.98996 16.3935 4.56071 16.9996 4.27756C17.6057 3.99441 18.2726 3.86622 18.9405 3.9045C19.4122 3.86425 19.8871 3.92752 20.3319 4.08988C20.7766 4.25225 21.1805 4.50979 21.5154 4.84451C21.8503 5.17923 22.108 5.58304 22.2705 6.02773C22.4331 6.47241 22.4965 6.94723 22.4565 7.419V14.694H20.409V7.97175C20.409 6.576 19.7888 5.63025 18.2805 5.63025L18.2775 5.6295ZM4.7775 1.9545H0V0H11.85V1.95H7.0725V14.6932H4.776L4.7775 1.9545Z" fill="white"/>
<path d="M49.8833 9.30444H51.7036V14.6932H49.8833V9.30444Z" fill="#00FF00"/>
<path d="M51.7026 3.91577H53.5229V9.30452H51.7026V3.91577Z" fill="#00FF00"/>
</svg>
