<svg width="21" height="21" viewBox="0 0 21 21" fill="none" xmlns="http://www.w3.org/2000/svg">
<g clip-path="url(#clip0_428_2667)">
<path d="M16.625 9.625C16.625 11.0095 16.2145 12.3628 15.4453 13.514C14.6761 14.6651 13.5829 15.5623 12.3038 16.0922C11.0247 16.622 9.61724 16.7606 8.25937 16.4905C6.9015 16.2204 5.65422 15.5537 4.67526 14.5747C3.69629 13.5958 3.0296 12.3485 2.75951 10.9906C2.48941 9.63277 2.62803 8.2253 3.15785 6.94622C3.68766 5.66713 4.58487 4.57388 5.73601 3.80471C6.88716 3.03554 8.24053 2.625 9.625 2.625C11.4815 2.625 13.262 3.3625 14.5747 4.67525C15.8875 5.98801 16.625 7.76848 16.625 9.625V9.625Z" stroke="white" stroke-width="1.5" stroke-linecap="round" stroke-linejoin="round"/>
<path d="M18.3751 18.3751L14.5691 14.5691" stroke="white" stroke-width="1.5" stroke-linecap="round" stroke-linejoin="round"/>
</g>
<defs>
<clipPath id="clip0_428_2667">
<rect width="21" height="21" fill="white"/>
</clipPath>
</defs>
</svg>
